<svg width="25" height="25" viewBox="0 0 25 25" fill="none" xmlns="http://www.w3.org/2000/svg">
<path d="M1 10.14C1 6.33194 1 4.42791 1.96977 3.09313C2.28296 2.66206 2.66206 2.28296 3.09313 1.96977C4.42791 1 6.33194 1 10.14 1H14.71C18.5181 1 20.4221 1 21.7569 1.96977C22.1879 2.28296 22.567 2.66206 22.8802 3.09313C23.85 4.42791 23.85 6.33194 23.85 10.14V14.71C23.85 18.5181 23.85 20.4221 22.8802 21.7569C22.567 22.1879 22.1879 22.567 21.7569 22.8802C20.4221 23.85 18.5181 23.85 14.71 23.85H10.14C6.33194 23.85 4.42791 23.85 3.09313 22.8802C2.66206 22.567 2.28296 22.1879 1.96977 21.7569C1 20.4221 1 18.5181 1 14.71V10.14Z" stroke="#0C0C0C" stroke-width="1.90417" stroke-linejoin="round"/>
<path d="M17.5028 12.425C17.5028 15.2294 15.2294 17.5028 12.425 17.5028C9.62062 17.5028 7.34722 15.2294 7.34722 12.425C7.34722 9.62062 9.62062 7.34722 12.425 7.34722C15.2294 7.34722 17.5028 9.62062 17.5028 12.425Z" stroke="#0C0C0C" stroke-width="1.90417" stroke-linejoin="round"/>
</svg>
