<svg width="31" height="31" viewBox="0 0 31 31" fill="none" xmlns="http://www.w3.org/2000/svg">
<path d="M13.7838 5.86486L7.91983 7.40801C7.12468 7.61726 6.7271 7.72189 6.42512 7.96598C6.32588 8.0462 6.23538 8.13669 6.15516 8.23594C5.91107 8.53792 5.80645 8.93549 5.5972 9.73064L2.48853 21.5436C1.51297 25.2507 1.02518 27.1043 1.79096 28.2812C2.03212 28.6518 2.34818 28.9679 2.7188 29.209C3.8957 29.9748 5.74927 29.487 9.45642 28.5115L21.2694 25.4028C22.0645 25.1935 22.4621 25.0889 22.7641 24.8448C22.8633 24.7646 22.9538 24.6741 23.034 24.5749C23.2781 24.2729 23.3827 23.8753 23.592 23.0802L25.1351 17.2162M13.7838 5.86486L25.1351 17.2162M13.7838 5.86486L16.3439 3.30478C17.3041 2.34453 17.7843 1.8644 18.3654 1.77236C18.5531 1.74263 18.7442 1.74263 18.9319 1.77236C19.513 1.8644 19.9932 2.34453 20.9534 3.30479L27.6952 10.0466C28.6555 11.0068 29.1356 11.487 29.2276 12.0681C29.2574 12.2558 29.2574 12.4469 29.2276 12.6346C29.1356 13.2157 28.6555 13.6959 27.6952 14.6561L25.1351 17.2162" stroke="#FBFBFB" stroke-width="1.7633" stroke-linecap="round" stroke-linejoin="round"/>
</svg>
